<?xml version="1.0" standalone="no"?>
<!DOCTYPE svg PUBLIC "-//W3C//DTD SVG 20010904//EN"
 "http://www.w3.org/TR/2001/REC-SVG-20010904/DTD/svg10.dtd">
<svg version="1.0" xmlns="http://www.w3.org/2000/svg"
 width="500.000000pt" height="500.000000pt" viewBox="0 0 500.000000 500.000000"
 preserveAspectRatio="xMidYMid meet">

<g transform="translate(0.000000,500.000000) scale(0.100000,-0.100000)"
fill="#000000" stroke="none">
<path d="M3655 4105 c-162 -36 -264 -92 -386 -214 -78 -79 -103 -112 -138
-181 -56 -116 -74 -205 -68 -350 5 -129 30 -220 88 -316 l33 -54 550 0 c461 0
547 2 531 13 -11 8 -128 69 -260 136 -132 68 -277 147 -322 177 -148 98 -223
209 -223 328 0 138 100 266 246 314 226 75 473 -3 670 -211 111 -116 184 -254
215 -405 l13 -62 39 0 39 0 -6 153 c-3 83 -9 272 -12 420 l-6 267 -27 0 c-23
0 -28 -6 -44 -61 -21 -72 -56 -109 -102 -109 -39 0 -84 15 -236 80 -155 67
-261 90 -414 89 -66 0 -147 -7 -180 -14z"/>
<path d="M0 4035 c0 -34 1 -35 38 -35 96 0 199 -49 237 -112 19 -31 20 -55 23
-465 l3 -433 304 0 303 0 4 418 c3 399 4 419 24 463 41 88 131 129 287 129
l77 0 0 35 0 35 -650 0 -650 0 0 -35z"/>
<path d="M3482 2716 c-33 -82 -46 -126 -38 -126 7 0 17 15 22 33 9 31 12 32
66 35 l56 3 12 -36 c6 -19 16 -35 21 -35 15 0 11 12 -40 134 l-48 118 -51
-126z m56 -34 c-22 -2 -42 -1 -44 1 -3 2 5 26 17 53 l22 49 22 -50 22 -50 -39
-3z"/>
<path d="M420 2711 c0 -74 4 -121 10 -121 6 0 10 23 10 50 l0 50 44 0 c36 0
48 5 66 27 15 19 19 35 15 53 -10 40 -30 53 -89 58 l-56 4 0 -121z m110 79
c24 -24 24 -29 4 -58 -11 -16 -25 -22 -55 -22 l-39 0 0 50 0 50 35 0 c22 0 43
-8 55 -20z"/>
<path d="M700 2710 c0 -69 4 -120 9 -120 6 0 11 21 13 47 4 65 24 65 68 3 19
-27 41 -50 48 -50 15 0 11 9 -27 59 -20 26 -23 35 -12 39 27 9 51 43 51 71 0
43 -40 71 -101 71 l-49 0 0 -120z m112 83 c21 -18 24 -53 6 -71 -7 -7 -31 -12
-55 -12 l-43 0 0 43 c0 24 3 47 7 50 12 13 67 7 85 -10z"/>
<path d="M1043 2814 c-41 -20 -67 -75 -59 -122 17 -108 172 -137 221 -42 57
110 -51 219 -162 164z m100 -15 c97 -49 61 -189 -48 -189 -17 0 -39 12 -61 34
-46 46 -46 86 0 132 36 36 70 43 109 23z"/>
<path d="M1420 2731 c0 -108 -9 -127 -55 -119 -17 4 -25 1 -25 -8 0 -20 65
-18 84 2 13 12 16 38 16 120 0 63 -4 104 -10 104 -6 0 -10 -40 -10 -99z"/>
<path d="M1590 2710 l0 -120 70 0 c40 0 70 4 70 10 0 6 -27 10 -60 10 l-60 0
0 45 0 45 60 0 c33 0 60 4 60 10 0 6 -27 10 -60 10 l-60 0 0 45 0 45 60 0 c33
0 60 4 60 10 0 6 -30 10 -70 10 l-70 0 0 -120z"/>
<path d="M1860 2820 c0 -5 14 -10 30 -10 l30 0 0 -110 c0 -67 4 -110 10 -110
6 0 10 43 10 110 l0 110 30 0 c17 0 30 5 30 10 0 6 -30 10 -70 10 -40 0 -70
-4 -70 -10z"/>
<path d="M2200 2823 c-28 -10 -59 -46 -70 -79 -32 -97 77 -187 168 -140 44 23
62 54 62 106 0 25 -7 56 -16 68 -29 42 -96 63 -144 45z m111 -42 c60 -60 27
-156 -57 -168 -36 -5 -46 -1 -75 25 -28 25 -34 37 -34 72 0 35 6 47 33 71 44
40 93 40 133 0z"/>
<path d="M2700 2710 c0 -73 4 -120 10 -120 6 0 10 25 10 55 l0 55 55 0 c30 0
55 5 55 10 0 6 -25 10 -55 10 l-55 0 0 45 0 45 60 0 c33 0 60 4 60 10 0 6 -30
10 -70 10 l-70 0 0 -120z"/>
<path d="M2970 2710 c0 -73 4 -120 10 -120 6 0 10 47 10 120 0 73 -4 120 -10
120 -6 0 -10 -47 -10 -120z"/>
<path d="M3150 2712 c0 -140 18 -168 22 -36 l3 86 59 -86 c32 -47 61 -86 63
-86 1 0 3 54 3 120 0 139 -18 165 -22 33 l-3 -88 -62 89 -63 89 0 -121z"/>
<path d="M3770 2710 l0 -120 50 0 c28 0 50 5 50 10 0 6 -18 10 -40 10 l-40 0
0 110 c0 67 -4 110 -10 110 -6 0 -10 -47 -10 -120z"/>
<path d="M4222 2805 c-40 -51 -37 -160 7 -199 50 -46 121 15 121 104 0 96 -80
156 -128 95z m85 -22 c36 -54 11 -173 -36 -173 -33 0 -55 37 -55 93 -1 92 52
139 91 80z"/>
<path d="M4532 2823 c-11 -4 -42 -54 -42 -68 0 -15 22 -2 32 20 22 48 91 41
104 -11 6 -22 -3 -36 -67 -100 l-73 -74 82 0 c48 0 82 4 82 10 0 6 -22 10 -50
10 -27 0 -50 3 -50 6 0 4 23 29 50 55 39 37 50 55 50 79 0 56 -63 95 -118 73z"/>
<path d="M307 2423 c-4 -3 -7 -148 -7 -320 0 -203 -4 -330 -11 -360 -24 -92
-119 -153 -241 -153 l-48 0 0 -35 0 -35 1100 0 1100 0 4 23 c3 12 23 198 46
412 22 215 42 405 45 423 6 31 5 32 -32 32 l-38 0 -44 -128 c-84 -247 -179
-402 -303 -497 -139 -105 -257 -129 -593 -123 -239 5 -269 10 -314 51 -51 47
-54 69 -59 405 l-4 312 -298 0 c-163 0 -300 -3 -303 -7z"/>
<path d="M4060 2408 c188 -114 260 -180 310 -281 53 -108 50 -231 -10 -329
-63 -104 -181 -179 -310 -199 -233 -36 -466 54 -656 253 -126 132 -204 287
-264 526 -10 39 -13 42 -45 42 l-35 0 2 -477 3 -478 32 -3 c27 -3 34 2 54 37
44 78 133 128 206 115 21 -4 82 -24 137 -46 147 -58 248 -85 376 -98 304 -32
575 61 767 264 160 168 232 381 203 597 -6 46 -14 87 -16 91 -3 4 -182 8 -397
8 l-392 0 35 -22z"/>
</g>
</svg>
